#tb 0: 1/25
#media_type 0: video
#codec_id 0: rawvideo
#dimensions 0: 352x256
#sar 0: 1/1
0,          0,          0,        1,    90112, 0x672578e1
0,          1,          1,        1,    90112, 0xb55e78e1
0,          2,          2,        1,    90112, 0x4da378e1
0,          3,          3,        1,    90112, 0xf71f78e1
0,          4,          4,        1,    90112, 0x15b478e1
0,          5,          5,        1,    90112, 0x770578e1
0,          6,          6,        1,    90112, 0x2c2778e1
0,          7,          7,        1,    90112, 0xc00878e1
0,          8,          8,        1,    90112, 0x039f78e1
0,          9,          9,        1,    90112, 0xfe8978e1
0,         10,         10,        1,    90112, 0x568778e1
0,         11,         11,        1,    90112, 0xa15178e1
0,         12,         12,        1,    90112, 0x7c7378e1
0,         13,         13,        1,    90112, 0xd6da78e1
0,         14,         14,        1,    90112, 0x0e3d78e1
0,         15,         15,        1,    90112, 0x5b5478e1
0,         16,         16,        1,    90112, 0x1bcb78e1
0,         17,         17,        1,    90112, 0xd6e378e1
0,         18,         18,        1,    90112, 0xaaa978e1
0,         19,         19,        1,    90112, 0x0ffa78e1
0,         20,         20,        1,    90112, 0x2e3a78e1
0,         21,         21,        1,    90112, 0xd4ef78e1
0,         22,         22,        1,    90112, 0xad7c78e1
0,         23,         23,        1,    90112, 0x65d478e1
0,         24,         24,        1,    90112, 0xdd4778e1
0,         25,         25,        1,    90112, 0x094878e1
0,         26,         26,        1,    90112, 0x34ed78e1
0,         27,         27,        1,    90112, 0x3a6378e1
0,         28,         28,        1,    90112, 0xe03d78e1
0,         29,         29,        1,    90112, 0x28d878e1
0,         30,         30,        1,    90112, 0xfac478e1
0,         31,         31,        1,    90112, 0xf82178e1
0,         32,         32,        1,    90112, 0xb36f78e1
0,         33,         33,        1,    90112, 0x2d3e78e1
0,         34,         34,        1,    90112, 0x574d78e1
0,         35,         35,        1,    90112, 0xda4578e1
0,         36,         36,        1,    90112, 0x60a578e1
0,         37,         37,        1,    90112, 0x19f578e1
0,         38,         38,        1,    90112, 0x542578e1
0,         39,         39,        1,    90112, 0xecf378e1
0,         40,         40,        1,    90112, 0x1a5a78e1
0,         41,         41,        1,    90112, 0xfef978e1
0,         42,         42,        1,    90112, 0xf5a878e1
0,         43,         43,        1,    90112, 0xf78d78e1
0,         44,         44,        1,    90112, 0x637178e1
0,         45,         45,        1,    90112, 0xea4378e1
0,         46,         46,        1,    90112, 0xcc9c78e1
0,         47,         47,        1,    90112, 0x907278e1
0,         48,         48,        1,    90112, 0x224c78e1
0,         49,         49,        1,    90112, 0x11aa78e1
